<svg xmlns="http://www.w3.org/2000/svg" viewBox="0 0 198 300" xmlns:v="https://vecta.io/nano"><style><![CDATA[.B{stroke:#cea16c}.C{stroke:#e9c6aa}.D{stroke:#e5c2a6}.E{stroke:#e4b280}.F{stroke:#e0ad7b}.G{stroke:#c6906f}.H{stroke:#dcb1a9}.I{stroke:#e9bea6}.J{stroke:#9d9384}.K{stroke:#d39d6c}.L{stroke:#fbd3ba}.M{stroke:#d89d7f}.N{stroke:#958288}.O{stroke:#b3a498}]]></style><g fill="none" stroke-width="2"><path vector-effect="non-scaling-stroke" d="M198 56.46q-.49.81-1.46-.78-.28-.46-.46-1.48-.34-1.91-2.28-2.27-.45-.08-.8-.36-.81-.65-1.86-.81-.52-.07-.96-.36-2.56-1.67-5.51-.71a1.07 1.06-33.7 0 1-.99-.19q-1.34-1.1-3.04-1.18a1.48 1.46 68.8 0 1-.96-.43q-1.6-1.65-3.88-2.07-.49-.09-.74-.51-.39-.62-1-.7-.42-.05-.28-.44.24-.64-.2-1.27-.61-.88-.64-1.82" class="B"/><path vector-effect="non-scaling-stroke" d="M172.94 41.08q2.86.59 3.89-1.46a.97.97 0 0 0-.67-1.38l-2.17-.47q-1-.22-.02-.51c1.5-.45 4.02-.6 4.4-2.58.89-4.67-8.17-7.14-9.32-.14" class="D"/><path vector-effect="non-scaling-stroke" d="M169.05 34.54l-1.55.57" class="B"/><path vector-effect="non-scaling-stroke" d="M167.5 35.11q-2.16-7.37-7.52-2.85c-2.44 2.05-2.78 4.83-.35 7.01" class="D"/><path vector-effect="non-scaling-stroke" d="M159.63 39.27q-.04 1.02-1.65.36a.61.59 1.5 0 1-.32-.33q-.14-.4-.44-.02-.29.36-.4-.09-.18-.71-.53-.65" class="B"/><path vector-effect="non-scaling-stroke" d="M156.29 38.54c-.54-3.39-.81-9.73-6.52-7.33" class="D"/><path vector-effect="non-scaling-stroke" d="M149.77 31.21q-.08-.4-.75-.32-.21.03-.23-.18-.02-.15.08-.27.23-.29-.11-.46l-1.02-.5q-.45-.22-.37.28.04.19-.04.37a.57.57 0 0 1-.96.11l-2.49-3.17q-.14-.17-.2-.39-.11-.43-.6-.53-.38-.07-.67-.31l-1.23-.97q-.42-.34-.94-.21-.69.16-1.31-.23-.37-.23-.79-.15c-1.77.36-3.47.41-5.3.77q-1.28.25-1.95-.34a2.51 2.51 0 0 0-3.13-.12c-2.03 1.5-5.53 1.27-8.6.94q-.49-.05-.89-.34-1.2-.86-2.6-.45-.47.13-.88-.13-.54-.35-1.05-.26c-3.45.62-6.24-.84-9.77-.32q-.54.08-.86-.36l-.18-.25a.38.37-47 0 0-.62.03q-.41.67-1.18.6-.13-.01-.14-.12-.01-.07-.01-.12.01-.06-.03-.1-1.45-1.24-3.36-1.12-.51.03-1 .16-1.31.37-2.68.43-.34.01-.63.2l-2.06 1.33a.22.22 0 0 1-.34-.23q.03-.14-.1-.22-.34-.23-.62.07-.31.33-.5.77a.81.81 0 0 1-.65.47q-.52.06-.85.36-.32.3.02.57.37.29.53.71.17.45-.31.39-.61-.08-1.81-1.26a.58.58 0 0 0-.9.11q-.36.58-1.4.26-1.05-.32-2.07.01-.64.2-.96.11-.56-.17-.77-.68-.13-.29-.44-.27-.52.04-.92-.2-.39-.24-.85-.17l-2.53.39q-.05 0-.25.1-.17.08-.13.24.07.32-.21.5-1.2.78-2.19-.03a.57.56 57.5 0 0-.52-.12q-.89.23-.45 1.18a.41.41 0 0 1-.5.56q-.91-.32-1.92.03-.22.08-.39.24-.6.58-.09.76.79.27.35.98l-.58.94" class="B"/><path vector-effect="non-scaling-stroke" d="M68.87 31.28q-3.02-1.49-4.82.23a.67.67 0 0 1-1.09-.73q.99-2.56.92-5.27a.8.79 0 0 0-.78-.77l-.43-.02q-1.35-.03-1.54 1.3l-1.21 8.33" class="D"/><path vector-effect="non-scaling-stroke" d="M59.92 34.35q-.99 1.06-.83 3.76a.23.23 0 0 1-.42.14q-.35-.52-.65-.2" class="B"/><path vector-effect="non-scaling-stroke" d="M58.02 38.05c-.38-2.31-.44-5.6-2.6-6.84-4.02-2.3-7.88 2.94-7.74 6.6" class="D"/><path vector-effect="non-scaling-stroke" d="M47.68 37.81q-.12 3.25-2.58.18-.24-.31-.62-.39-.6-.14-.8-.64-.17-.42.22-.65l1.75-1.02" class="B"/><path vector-effect="non-scaling-stroke" d="M45.65 35.29q.96-4.71-4.87-3.87-.57.09-.94-.36l-.36-.46q-.31-.38-.78-.5-1.49-.39-1.52.9-.1 4.29-.18 8.52" class="D"/><path vector-effect="non-scaling-stroke" d="M37 39.52q-1 .38-1.42-.04" class="B"/><path vector-effect="non-scaling-stroke" d="M35.58 39.48q-1.83-7.21-6.15-13.5a1.75 1.74 62.6 0 0-2.04-.65c-2.7 1-4.41 5.48-5.4 8.02" class="D"/><path vector-effect="non-scaling-stroke" d="M21.99 33.35q-1.43-.2-1.49.44-.04.42-.25.21-.13-.13-.35-.16a.04.04 0 0 0-.04.05q.2 1.03-.74 1.21-.11.02-.23.08-.21.1-.35.07-.24-.06-.39.14-.27.37-.16.77.11.39-.25.55-.36.17-.75.07-.47-.13-.92.07-.86.39-1.24 1.12-.42.79-.83.27-.2-.25-.51-.03-.21.17-.26.43-.16.82-.77.76-.3-.02-.57.12l-7.76 4.12a.72.7 39.1 0 1-.57.05q-1.19-.4-2.14.1-.3.16-.3.49v.55q0 1.1-.66.23Q.13 44.62 0 44" class="B"/><path vector-effect="non-scaling-stroke" d="M149.77 31.21q-3.2 1.8-3.71 4.94c-.6 3.62 3.51 6.08 5.93 3.22a.56.55 48.1 0 1 .88.05q1.06 1.56 2.86 1.02.45-.13.48-.6l.08-1.3m3.34.73q1.75 1.22 3.97.45.59-.2.51.41c-.26 2.12-2.39 3.15-4.02 4.28a1 1 0 0 0-.07 1.6l.38.31a2.55 2.55 0 0 0 2.83.26c5.38-2.92 3.31-7.17 4.27-11.47m1.55-.57q-.84 5.44 3.89 6.54" class="C"/><path vector-effect="non-scaling-stroke" d="M198 239.74q-1.53.45-2.36 1.76-.23.36-.65.44-1.63.33-2.81 1.47-.4.39-.94.57-.69.22-1.03.78-.29.48-.85.52c-1.41.1-2.84.77-3.65 1.98q-.25.37-.66.41-.26.03-.5.16l-1.01.55q-.37.2-.79.24-.69.07-1.04.74-.27.52-.78.24-1.29-.7-2.22.46-.3.37-.78.31-.77-.11-.8.5-.02.56-.58.68-1.72.36-3.05 1.59-.2.18-.09.42.08.2.2.32.26.28-.74.36-.68.05-.97.77-.18.45-.61.7-4.27 2.43-8.87 4.06c-1.37.49-2.53 1.56-3.8 2.28q-.37.21-.77.1-.71-.2-1.12-.02-1.82.8-3.74 1.43-.54.18-.82.67-.41.71-1.33.66-.49-.03-.8.36-.43.56-1.21.36-.47-.12-.92.08-2.31.99-5.08.73" class="B"/><path vector-effect="non-scaling-stroke" d="M142.83 266.42c.69-7.22.25-14.21.27-21.49.01-7.02-.56-13.95-.54-21" class="K"/><path vector-effect="non-scaling-stroke" d="M142.56 223.93c1.29-3.84 2.33-7.11 1.85-11.31q-1.07-9.42-3.1-18.96-.17-.82.38-.19.07.08.02.4-.06.39.08.75l3.75 9.86" class="C"/><path vector-effect="non-scaling-stroke" d="M145.54 204.48q3.57 8.25 6.97 16.47c.66 1.62.34 3.24-.34 4.69a2.28 2.27 32.5 0 0 .61 2.72q1.77 1.46 2.46 3.67a.47.47 0 0 0 .75.22q3.45-2.91 2.23-7.13c-.68-2.33-2.19-2.82-2.15-5.7q.13-8.67-2.26-16.97" class="E"/><path vector-effect="non-scaling-stroke" d="M153.81 202.45c3.2-3.18-1.72-5.57-2.68-8.45q-1.11-3.36-2.92-7.73-5.54-13.35-18.89-16.42" class="C"/><path vector-effect="non-scaling-stroke" d="M129.32 169.85q-2.31-1.5-2.12-3.64" class="E"/><path stroke="#b8825e" vector-effect="non-scaling-stroke" d="M127.2 166.21q1.9-6.51 1.37-10.22c-.67-4.64-5.59-6.12-9.4-4.38-1.37.63-2.16 2.01-3.08 3.21a1.09 1.08 8.5 0 1-.52.38l-1.86.64q-.59.2-.31.75.58 1.15 1.83 1.64"/><path vector-effect="non-scaling-stroke" d="M115.23 158.23c.29 3.58-1.15 10.48 4.27 10.5a.46.46 0 0 1 .44.59q-.14.5-.76.9" class="E"/><path vector-effect="non-scaling-stroke" d="M119.18 170.22c-9.57 2.38-13.97 16.57-15.52 24.77q-1.09 5.8-1.92 11.3" class="C"/><path vector-effect="non-scaling-stroke" d="M101.74 206.29q-1.85 7.19-1.83 14.34c.02 3.73-3.08 8.07-1.3 12.72a.34.33-29.3 0 0 .51.14c3.39-2.61 4.4-5 4.76-9.58.41-5.37 3.2-10.03 5.72-14.69" class="E"/><path vector-effect="non-scaling-stroke" d="M109.6 209.22l3.8-4.39q.52-.6.54.2c.13 4.6-.65 9.92.97 14.23q1.42 3.77 3.16 7.23" class="C"/><path vector-effect="non-scaling-stroke" d="M118.07 226.49q.04 1.4.14 3.01.1 1.57-.01 3c-1 13.02-2.41 26.08 1.09 38.88q1.22 4.46 2.3 8.95.1.39.5.34l.32-.04" class="K"/><path vector-effect="non-scaling-stroke" d="M122.41 280.63q.25 1.39.02 2.01" class="E"/><path stroke="#b8825e" vector-effect="non-scaling-stroke" d="M122.43 282.64l-1.56 2.91"/><path vector-effect="non-scaling-stroke" d="M120.87 285.55q-.23-.25-.2-.48.11-.7-.17-.69-.15 0-.32-.02-.27-.02-.12-.26.55-.8-.81-1.05-.45-.09-.88.1l-.95.43a.06.06 0 0 1-.07-.08l.27-.51a.13.13 0 0 0-.15-.19q-1.64.42-3.41.15-.6-.09-.96.4l-.19.25q-.39.54-.94.17-1.27-.85-2.45-.09-.37.24-.8.19l-7.05-.83q-.45-.06-.84.18c-.86.52-2.77-.49-4.17.1q-.4.16-.82.06-2.16-.5-4.33-.06-.49.1-.96-.08c-2.27-.88-4.56-.05-6.54-.29q-3.25-.39-6.53-.41-.25 0-.49.1-.13.06-.27.16-.18.12-.39.04-1.23-.47-2.59-.39-.42.03-.79-.17-.91-.48-1.85-.73-.09-.02-.13-.11-.06-.17-.2-.26-.39-.25-.39.21v.49a.25.25 0 0 1-.25.25h-1.14q-.5 0-.6-.5-.05-.26 0-.58.09-.62-.39-.23-.45.36-.93.39" class="B"/><path vector-effect="non-scaling-stroke" d="M67.07 281.21l.15-4.51" class="E"/><path stroke="#a19789" vector-effect="non-scaling-stroke" d="M67.22 276.7q2.88-.42 2.79-3.94-.21-8.42-.42-16.85c-.1-3.9-1.14-8.35-1.2-12.6-.07-4.59 2.17-9.47 3.18-14.23"/><path vector-effect="non-scaling-stroke" d="M71.57 229.08c2.88-2.27 2.59-8.34 2.4-11.84q-.32-6-.27-12.4a1.16 1.16 0 0 1 1.82-.94c1.83 1.29 3.93 2.68 6.24.62 3.81-3.41 6.29-8.66 7.98-13.42" class="G"/><path vector-effect="non-scaling-stroke" d="M89.74 191.1l.2-.21a.25.23-20.8 0 0 .07-.14l.14-1.3q.09-.73.83-.77 4.24-.23 6.55-3.87a.68.68 0 0 0-.75-1.02q-1.62.46-3.11-.35-1.92-1.04-3.29.67l-3.84 4.78" class="E"/><path vector-effect="non-scaling-stroke" d="M86.54 188.89l-4.85 6.42a1.07 1.06-39.2 0 1-1.81-.18q-.95-1.99-2.05-4.64-1.64-3.94-7.19-10.67" class="G"/><path stroke="#ac8964" vector-effect="non-scaling-stroke" d="M70.64 179.82c3.38-1.23 3.98-3.97 3.54-7.07-.38-2.65-.94-12.61-4.67-12.98-3.14-.31-10.26-.63-11.12 3.95q-.72 3.83-1.54 6.44c-.76 2.39-1.32 4.94.83 6.36"/><path vector-effect="non-scaling-stroke" d="M57.68 176.52q.38.45-.31.86-5.12 3.04-8.62 6.89c-1.52 1.67-9.07 11.64-8.7 15.23q.69 6.73 2.95 13.06c1.58 4.44 1.19 8.29.9 12.76a2.37 2.36 8.1 0 0 1.85 2.46l4.23.93" class="G"/><path stroke="#a19789" vector-effect="non-scaling-stroke" d="M49.98 228.71l3.74 21.38a7.14 7.07-43 0 1-.12 2.98l-2.76 10.72"/><path vector-effect="non-scaling-stroke" d="M50.84 263.79q-1.97-.03-3.03 1.79a.7.69-61.7 0 1-.91.28l-1.01-.51q-.48-.24-.86.14-.37.37-.79-.09-.81-.89-1.93-.78a.98.98 0 0 1-.85-.35q-1.49-1.82-3.93-1.63-.32.03-.47-.27-.11-.2-.29-.34-.18-.16-.6-.19-1.46-.12-2.38-1.17-.02-.02-.8-.53-.56-.37-1.27-.26a1.04 1.04 0 0 1-.86-.25q-.82-.73-1.85-.5-.53.11-1.02-.13l-3.52-1.75q-.17-.08-.27.07-.17.26-.42.31-.22.04-.51-.2-1.96-1.58-4.48-1.93-.41-.06-.42-.47 0-.16 0-.3a.68.68 0 0 0-.4-.62c-1.43-.67-2.83-1.15-4.03-2.26q-1.88-1.72-4.03-3.1-.48-.31-.73-.83-.4-.83-1.24-.81a.71.69 79.5 0 1-.67-.48c-.47-1.4-2.04-1.48-3.02-2.63q-.46.23-2.13-2.22a.36.36 0 0 0-.66.16q-.22 1.96-1.46 3.2" class="B"/><path vector-effect="non-scaling-stroke" d="M21.99 33.35l-2.31 6.3a1.41 1.4 27.7 0 0 .51 1.62q1.12.79 2-.83.71-1.33 1.78-2.56a.99.98 21.3 0 1 .79-.34l5.56.21a1.01.99-15.1 0 1 .8.45c.79 1.19 1.43 4.15 3.62 2.68a1.14 1.12-10.8 0 0 .47-.68q.1-.45.37-.72m1.42.04l.54 1.3a1.59 1.59 0 0 0 2.51.6c1.53-1.29 1.2-4.29 2.01-6.27q.21-.53.75-.33 1.21.45 2.84.47m2.03 2.52c.76 3.39 3.78 2.76 6.32 1.68a.73.72 57 0 1 .82.18q.92 1 2.29.96a.76.75-82.3 0 0 .69-.53q.32-1.02.22-2.05m1.9-3.7l-.01 6.04a.58.57 4.5 0 0 .5.58c2.71.34 5.48.79 7.79-.82q4.41-3.05.67-8.87m28.45-3.391a1.58 1.58 0 0 0-1.591-1.569l-.1.001a1.58 1.58 0 0 0-1.569 1.591l.08 11.44a1.58 1.58 0 0 0 1.591 1.569h.1A1.58 1.58 0 0 0 97.4 39.33l-.08-11.44m-22.2.78a1.32 1.32 0 1 0-2.64 0 1.32 1.32 0 1 0 2.64 0m5.28 8.97q-.7-2.05.75-3.79 1.29-1.53 2.54-.18.35.37.82.18 1.03-.4.68-1.35c-2.43-6.64-12.16 3.2-6.46 7.88 1.75 1.43 5.98.97 7.22-1.17a.71.71 0 0 0-.64-1.07l-4.01.12q-.68.02-.9-.62m25.99 1.97q.99 1.39 2.59.89a.86.86 0 0 0 .6-.82q.01-3.02-.82-5.87c-2.23-7.64-12.27.48-8.89 5.28 1.56 2.22 3.7 1.39 5.71.33a.63.63 0 0 1 .81.19m23.2.44c-.15 1.71-1.4 2.67-2.62 3.41q-3.96 2.39.54 3.45.81.2 2.36-1.04c3.75-3 3.14-7.94 2.6-13.16q-.05-.48-.45-.75-3.76-2.42-6.55.06c-3.65 3.24-1.4 9.81 3.66 7.69q.51-.21.46.34m12.1-.04q.19.12.37.27.5.42.83.46.79.11 1.26-.71.27-.48.12-1.02-.94-3.43-.74-6.97a1.1 1.09 24.5 0 0-.32-.84q-.63-.61-1.51-.5a1.1 1.09-86 0 0-.92.81l-1.18 4.5q-.91 3.47-2.12.06-.4-1.11-.23-3.62.03-.57-.2-.86-.33-.4-.92-.36a.88.86-77.5 0 0-.71.46c-2.01 3.72-.48 13.01 5.48 8.34q.38-.29.79-.02m-27.6-7.23q-.25-.77-.96-1.11a.96.96 0 0 0-1.36.8l-.49 6.71a1.46 1.45 20.5 0 0 .59 1.28q2.05 1.52 2.71-.31.91-2.49 2.48-4.54.76-.98.92.25.19 1.51.55 3.36.13.66.53.99.6.49 1.17.38 1.14-.23 1.34-1.38c.75-4.39-1.36-10.39-6.69-6.19q-.57.45-.79-.24m-38.493.645a1.26 1.26 0 0 0-1.136-1.373l-.259-.025a1.26 1.26 0 0 0-1.373 1.136l-.606 6.411a1.26 1.26 0 0 0 1.136 1.373l.259.025a1.26 1.26 0 0 0 1.373-1.136l.606-6.411M89.75 53.55q.01-.95.95-.94l4.19.02a1.58 1.57.9 0 0 1.58-1.52l.03-.74a1.5 1.5 0 0 0-1.66-1.54l-6.35.67a1.48 1.46-87.6 0 0-1.29 1.2q-.87 4.79-1.51 9.77c-.86 6.66 6.41 7.06 10.11 3.89q.35-.3.42-.76.14-.93-.47-1.35-.46-.32-1.51-.17-1.72.25-3.87.45-.94.09-.94-.85l-.01-1.7q0-.82.82-.78 2.71.15 5.27-.63.48-.15.49-.66l.01-.89q0-.69-.68-.82-2.46-.5-4.89.17a.57.57 0 0 1-.73-.56l.04-2.26m-37.95.93a1.39 1.38-88.4 0 1 1.24-1.18l2.23-.21a1.05 1.05 0 0 0 .69-1.73c-2.03-2.36-4.91-1.73-6.58.48-1.11 1.47-1.33 4.43-2.16 6.51q-.18.45.12.83l.85 1.09a2.07 1.98-68.5 0 1 .4.98q.24 1.99 1.17 3.77.52 1.01 1.44.75a.7.7 0 0 0 .52-.68l.03-4.11q0-1.04 1.05-.99 2.23.12 2.53-1.97a.89.87-73.8 0 0-.49-.92q-1.17-.55-2.5-.3a.66.66 0 0 1-.78-.74l.24-1.58m85.25 3.67l1.79-.14a1.44 1.43-27.6 0 0 .8-2.54q-.79-.65-1.93-.48a.84.84 0 0 1-.95-.71l-.35-2.56a.8.8 0 0 0-1.41-.39q-.75.93-.74 2.13 0 .54-.35.96-.6.72-1.41 1.21a.58.58 0 0 0-.06.95l.53.41q.39.3.52.78.32 1.22.42 2.46.46 5.29 5.7 3.95a1.45 1.45 0 0 0-.2-2.85q-.86-.1-1.69.15a.49.49 0 0 1-.62-.38l-.47-2.39q-.1-.52.42-.56m9.23 2.94q1.51 1.36-.34.56-1.69-.73-2.6.36a1.79 1.78-59.5 0 0 .72 2.8c6.52 2.58 10.12-4.52 2.4-7.17a.41.4 27.2 0 1-.2-.61l.17-.23q.42-.58 1.09-.32l.95.38a1.25 1.24-79.1 0 0 1.7-1.16q0-1.21-1.08-1.74c-4.74-2.35-9.91 3.75-4.67 6.08q1.36.6 1.86 1.05m-71.65-2.77c.8.18 1.49.7 2.18.64q.88-.09 1.1-1.15.1-.49-.17-.91-1.86-2.92-5.31-1.86-.53.16-.72-.37-.29-.79-1.03-1.1a1.18 1.17 11.8 0 0-1.64 1.07l-.09 8.71a1.87 1.86 89.6 0 0 1.91 1.89l.36-.01a1.54 1.53-84.7 0 0 1.46-1.22l1.05-5.1q.16-.75.9-.59m52.78 4.97l1.06.73a1.39 1.39 0 0 0 2.17-1.28c-.24-2.59-.35-6.69-2.83-8-4.05-2.15-9.59 4.47-6.89 8.04 1.64 2.16 3.47.87 5.51.34q.53-.14.98.17m-60.328-5.821a5.31 4.61-29.7 0 0-6.897-1.373 5.31 4.61-29.7 0 0-2.328 6.635 5.31 4.61-29.7 0 0 6.896 1.374 5.31 4.61-29.7 0 0 2.328-6.635m37.779 1.65q.87-.68 1.29-1.15 2.33-2.6-1.12-2.09-.45.07-1.66 1.09a.68.67 45.3 0 1-.88-.01l-1.56-1.35a.98.96-32.4 0 0-.89-.19q-1.28.36-1.02 1.72.1.52.39.96 1.11 1.65-.58 2.95a1.33 1.2-8.4 0 0-.33.4q-.58 1.09-.13 2.16.2.47.71.39 1.32-.21 2.1-1.31a.59.59 0 0 1 .92-.05l1.75 1.98a1.15 1.14-20.6 0 0 .82.37q.65.02 1.22-.34a1.66 1.64 56.5 0 0 .47-2.36l-1.62-2.3q-.36-.5.12-.87m7.83 6.12c9.32.6 6.5-13-.85-9.13q-.45.23-.85-.09l-.3-.24a.57.57 0 0 0-.9.3q-1.83 6.9-1.03 14.05a1.19 1.18 82.8 0 0 1.33 1.04l.7-.1q1.1-.15 1.15-1.27l.18-4.06q.03-.53.57-.5" class="C"/><path stroke="#daaa8b" vector-effect="non-scaling-stroke" d="M86.64 125.3c8.51 2.8 17.68-3.15 17.95-12.02.38-12.94-15.09-19.22-23.65-9.56-3.11 3.51-4.1 8.81-2.25 13.57.65 1.66.98 2.34.46 4.23q-.85 3.12-1.08 6.27a.41.4-9.1 0 0 .56.4l7.04-2.86q.48-.19.97-.03"/><path vector-effect="non-scaling-stroke" d="M95.2 136.58q0-.44-.4.26" class="C"/><path vector-effect="non-scaling-stroke" d="M94.8 136.84q-.32-1.54-1.26-2.69a1.53 1.49 75.6 0 0-.82-.5q-2.48-.54-4.97.05c-8.99 2.16-13.39 11.24-8.91 19.72a1.18 1.18 0 0 1 .11.8l-1.78 7.52a.6.6 0 0 0 .82.7l6.94-2.9a1.21 1.2 43.4 0 1 .85-.02c9.69 3.44 18.67-3.89 18.2-13.87-.08-1.77-1.21-2.37-2.79-2.49" class="K"/><path vector-effect="non-scaling-stroke" d="M101.19 143.16q.54-.25.25-.5" class="C"/><path vector-effect="non-scaling-stroke" d="M101.44 142.66q5.53 1.7 10.66.25.58-.16 1.13.06l7.12 2.83a.38.38 0 0 0 .51-.44l-1.69-7.51q-.11-.53.12-1.02c4.84-10.05-2.06-21.18-13.42-20.02a.9.88 6.9 0 0-.74.57q-2.71 7.1-9.95 9.34a1.17 1.15-85.5 0 0-.7.61c-1.23 2.55.16 7.15.72 9.25" class="G"/><path vector-effect="non-scaling-stroke" d="M101.44 142.66l-6.24-6.08" class="H"/><path vector-effect="non-scaling-stroke" d="M94.8 136.84q1.57 4.45 6.39 6.32" class="I"/><path vector-effect="non-scaling-stroke" d="M62.92 37.03a.86.85 7.8 0 0 .87 1.14q3.17-.21 3.6-3.34a1.19 1.19 0 0 0-1.85-1.15q-1.87 1.26-2.62 3.35" class="C"/><path vector-effect="non-scaling-stroke" d="M25.89 33.5a.33.33 0 0 0 .33.44l3.08-.15a.33.33 0 0 0 .28-.48l-1.72-3.41a.33.33 0 0 0-.6.03l-1.37 3.57" class="D"/><path vector-effect="non-scaling-stroke" d="M175.04 33.8q.73-.13.15-.59-.57-.44-1.69-.2-.61.14-.75.65-.16.56.41.46l1.88-.32" class="I"/><path vector-effect="non-scaling-stroke" d="M51.16 37.276a2.06.9 123.6 0 0 1.89-1.218 2.06.9 123.6 0 0 .39-2.214 2.06.9 123.6 0 0-1.89 1.218 2.06.9 123.6 0 0-.39 2.214m51.556-.018a2.05.85 123.6 0 0 1.843-1.237 2.05.85 123.6 0 0 .426-2.178 2.05.85 123.6 0 0-1.843 1.237 2.05.85 123.6 0 0-.426 2.178m24.435-.835a1.65.81 133.2 0 0 1.72-.648 1.65.81 133.2 0 0 .539-1.757 1.65.81 133.2 0 0-1.72.648 1.65.81 133.2 0 0-.539 1.757m22.281.875a2.12.9 121.5 0 0 1.875-1.337 2.12.9 121.5 0 0 .34-2.278 2.12.9 121.5 0 0-1.875 1.337 2.12.9 121.5 0 0-.34 2.278m12.199-.875a1.65.82 132.7 0 0 1.722-.657 1.65.82 132.7 0 0 .516-1.769 1.65.82 132.7 0 0-1.722.657 1.65.82 132.7 0 0-.516 1.769m-37.967 24.395a2.14.87 124.3 0 0 1.925-1.278 2.14.87 124.3 0 0 .487-2.258 2.14.87 124.3 0 0-1.925 1.278 2.14.87 124.3 0 0-.487 2.258m-62.303.499a1.79 1.41 125.5 0 0 2.187-.639 1.79 1.41 125.5 0 0-.108-2.276 1.79 1.41 125.5 0 0-2.187.639 1.79 1.41 125.5 0 0 .108 2.276m52.049-2.797a.88.88 0 0 0-.3.25l-1.05 1.34a.88.88 0 0 0 .71 1.42l1.85-.01a.88.88 0 0 0 .87-.88l.01-1.73a.88.88 0 0 0-1.27-.8l-.82.41" class="C"/><g stroke="#f0cbc5"><path vector-effect="non-scaling-stroke" d="M90.27 114.25q-.79.49-2.98.46-.95-.02-.63-.91.05-.14.01-.32a.42.41-27.4 0 0-.68-.21q-.5.44-.72 1.04-.15.42-.58.56-1.36.42-1.38-.87-.04-2.6-.14-5.17 0-.12-.12-.12h-.35q-.32 0-.32.32l.11 5.21a1.24 1.24 0 0 0 .4.89q1.24 1.17 2.54.26.33-.23.72-.13 3.58.99 6.37-1.45.34-.3-.04-.54-1.72-1.07-3.22-1.15-2-.1-.29.95.26.17 1 .16 1.96 0 .3 1.02m8.79.72q-.18.49.66.63a1.59 1.59 0 0 0 1.78-2q-.28-1.01-1.18-1.51-.45-.25-.9 0-1.02.59-1.33 1.75-.11.42-.47.65-.52.34-.92.11-.28-.16-.55-.87-.29-.74-.72-1.41-.06-.09-.18-.07-.13.02-.26.05a.17.17 0 0 0-.13.23q.56 1.3.34 2.73a1.11 1.1 81.8 0 1-.62.83q-.79.38-.97.64-1.21 1.69.51.64 1.05-.64 1.86-1.56.31-.36.76-.28 1.08.19 2.32-.56"/><path vector-effect="non-scaling-stroke" d="M99.06 114.97l1.05-.28a.72.71-9.6 0 0 .54-.75q-.06-.61-.61-.95-.59-.35-.92.26-.34.62-.06 1.72"/></g><g class="H"><path vector-effect="non-scaling-stroke" d="M104.98 130.29l-2.09-2.16q-.07-.07-.18-.06l-.25.04q-.57.07-.18.49l2.5 2.63a.42.42 0 0 1-.09.65q-1.01.61-2.17.63a.27.27 0 0 0-.26.26l-.02.3q0 .09.08.11 1.53.4 2.78-.54.51-.37.93.09.47.51 1.16.66a1.35 1.32 37.5 0 0 .84-.1q1.3-.61 2.51-.01.55.28 1.02-.13l.86-.74q.42-.37.1-.83-1.13-1.59-2.7-2.73-.38-.28-.69.06-1.31 1.41-.83 3.17.26.95-.6.48l-.66-.36q-.7-.38-.66-1.18.15-2.99-.39-4.33-.4-1-.51.08-.16 1.6.14 3.19a.38.37 17.5 0 1-.64.33m9.384-3.424a.44.44 0 0 0-.467-.411l-.06.004a.44.44 0 0 0-.411.467l.37 5.888a.44.44 0 0 0 .467.411l.06-.004a.44.44 0 0 0 .412-.467l-.371-5.888"/><path vector-effect="non-scaling-stroke" d="M108.95 130.52l.19 1.37a.49.49 0 0 0 .96.06q.39-1.41-.55-1.87a.42.42 0 0 0-.6.44"/></g><g class="I"><path vector-effect="non-scaling-stroke" d="M90.09 145.28l.3.4q.52.72.76-.14.17-.58-.2-1.05-.29-.38-.86-.46-1.47-.2-2.58.98a.36.35-43.1 0 0-.02.47l.2.25q.21.26.49.07l1-.68q.53-.37.91.16m-7.04 2.05q2.89 1.29 5.96.29.48-.16.96.02 1.53.57 3.1.21a.96.95-87.2 0 0 .69-.63q.47-1.46-.1-2.86a.34.34 0 0 0-.65.12l-.03 2.41a.55.55 0 0 1-.9.41q-2.01-1.69-4.28-.55a1.22 1.21 69.2 0 1-1.72-.78q-.22-.83-.87-1.35a.92.92 0 0 0-1.06-.09q-4.04 2.38-1.61 6.97.09.17.34.09a.3.29 76.1 0 0 .19-.33l-.62-3.46q-.15-.81.6-.47"/><path vector-effect="non-scaling-stroke" d="M84.13 146.87q.39.22.7.11.46-.17.38-.65-.06-.44-.34-.75-.48-.54-.92.02-.64.82.18 1.27"/></g><path stroke="#ca8f6d" vector-effect="non-scaling-stroke" d="M127.2 166.21l-1.5-2.55q-.24-.41-.17-.88.09-.53.2-1.04.19-.86-.35-1.24-.43-.31-.87-.02l-.61.39q-.44.29-.75-.15-2.86-4.08-7.92-2.49"/><path vector-effect="non-scaling-stroke" d="M129.32 169.85q-1.59 4.89-5.25 9.21-1.4 1.64-3.13.51a1.99 1.95-87.8 0 1-.67-.74l-3.14-6.1q-.26-.52.1-.98.6-.77 1.95-1.53" class="L"/><path stroke="#9f7463" vector-effect="non-scaling-stroke" d="M70.64 179.82q-1.78-1.71-3.54-1.94"/><path stroke="#be9574" vector-effect="non-scaling-stroke" d="M67.1 177.88l.57-2.45q.15-.63.79-.65l.83-.02a1.04 1.04 0 0 0 .95-.69q2.27-6.31-1.22-12.12-.47-.79-.49.13-.05 3.86-2.86 6.48-.46.43-.82-.08l-.67-.92a.66.66 0 0 0-1.1.04l-.39.66q-.4.65.13 1.2l1.06 1.1q.34.36.38.86c.15 2.35.92 8.11-3.01 6.85"/><path stroke="#c2aa9e" vector-effect="non-scaling-stroke" d="M61.25 178.27q-.79-.47-1.5-.24"/><path stroke="#9f7463" vector-effect="non-scaling-stroke" d="M59.75 178.03q-.74-.87-2.07-1.51"/><path vector-effect="non-scaling-stroke" d="M67.1 177.88q-.63.67.12 1.11" class="M"/><path vector-effect="non-scaling-stroke" d="M67.22 178.99q-.41.03-.64.17-.2.12-.23.52c-.22 2.72-3.23 2.61-5.05 1.56q-.44-.25-.54-.73-.26-1.16.49-2.24m92.56 24.18l-.91-2.3a.9.9 0 0 0-1.4-.37l-5.96 4.7" class="L"/><path vector-effect="non-scaling-stroke" d="M142.56 223.93c-7.05 3.7-16.14 3.01-24.49 2.56" class="I"/><path vector-effect="non-scaling-stroke" d="M109.6 209.22c-3.35-.2-5.35-.13-7.86-2.93" class="L"/><path vector-effect="non-scaling-stroke" d="M59.75 178.03q-3.49 6.07-4.22 12.47-1.75 15.28-2.99 23.11" class="H"/><path vector-effect="non-scaling-stroke" d="M52.54 213.61q-.34.5-.31.59" class="N"/><path vector-effect="non-scaling-stroke" d="M52.23 214.2l-2.82-1.77a.85.85 0 0 0-1.26 1l2.89 8.21" class="M"/><path vector-effect="non-scaling-stroke" d="M51.04 221.64q.26 4.98-1.06 7.07" class="N"/><path vector-effect="non-scaling-stroke" d="M67.22 178.99q1.56 4.36 1.54 8.77c-.02 9.48.87 18.16.9 27.25" class="H"/><path stroke="#b8b8c3" vector-effect="non-scaling-stroke" d="M69.66 215.01q-8.8.79-17.12-1.4"/><path vector-effect="non-scaling-stroke" d="M86.54 188.89q.92 1.48 3.2 2.21" class="M"/><path vector-effect="non-scaling-stroke" d="M71.57 229.08l-4.4.42q-2.15.21-1.28-1.77 2.79-6.33 3.77-12.72" class="N"/><path vector-effect="non-scaling-stroke" d="M52.23 214.2q2.21 4-1.19 7.44m16.18 55.06q-2.06.52-5.07.24" class="O"/><path vector-effect="non-scaling-stroke" d="M62.15 276.94l-1.27-11.91q-.35-3.28-1.4-.16l-3.93 11.67" class="J"/><path vector-effect="non-scaling-stroke" d="M55.55 276.54q-2.22.4-4.69-.11" class="O"/><path vector-effect="non-scaling-stroke" d="M50.86 276.43l-1.62-.2a1 .99-80.3 0 1-.85-1.21l2.45-11.23" class="J"/><path stroke="#cf9968" vector-effect="non-scaling-stroke" d="M142.83 266.42q-.89 9.12-2.35 15.83-.25 1.1-.85 1"/><path stroke="#e5aa7c" vector-effect="non-scaling-stroke" d="M139.63 283.25l-4.41-.32"/><path stroke="#cf9968" vector-effect="non-scaling-stroke" d="M135.22 282.93c-.35-.25-.61-.66-.61-1.14q-.02-5.7-.4-11.38c-.74-10.91-.74-21.65-2.17-32.49a.63.62-20.9 0 0-.97-.43q-1.19.8-1.49 2.35-1.67 8.65-2.68 17.41-.65 5.61.94 18.25.33 2.62-1 4.93"/><path stroke="#e5aa7c" vector-effect="non-scaling-stroke" d="M126.84 280.43l-4.43.2"/><path vector-effect="non-scaling-stroke" d="M135.22 282.93q-.35 1.82.14 3.76" class="F"/><path stroke="#b47e59" vector-effect="non-scaling-stroke" d="M135.36 286.69q-1.29.54.47 2.22 3.81 3.66 9.15 3.1a.92.92 0 0 0 .54-1.59q-2.98-2.83-6.23-3.96"/><path vector-effect="non-scaling-stroke" d="M139.29 286.46q.45-1.08.34-3.21m-88.77-6.82l-1.41 8.24" class="F"/><path vector-effect="non-scaling-stroke" d="M49.45 284.67q.91 3.14 4.98 6.73 1.42 1.25 1.75-.61.08-.46-.79-1.68" class="J"/><path vector-effect="non-scaling-stroke" d="M55.39 289.11c-1.98-5.39-1.02-7.85.16-12.57m6.6.4q3.08 6.72-1.45 13.04" class="F"/><path vector-effect="non-scaling-stroke" d="M60.7 289.98q-.82.08-1.08 1.19a.68.68 0 0 0 .92.78q4.72-1.92 6.39-4.75" class="J"/><path vector-effect="non-scaling-stroke" d="M66.93 287.2l.14-5.99" class="F"/><path stroke="#b47e59" vector-effect="non-scaling-stroke" d="M120.87 285.55q-1 1.76-1.62 3.69-.26.84-.1 1.05a1.32 1.25 50.4 0 0 1.88.23l5.92-5.32a1.47 1.25 57.9 0 0 .23-1.6q-.13-.26-.9.16"/><path vector-effect="non-scaling-stroke" d="M126.28 283.76q1.15-1.63.56-3.33" class="F"/><path vector-effect="non-scaling-stroke" d="M55.39 289.11q-1.88-.34-2.94-1.81-1.46-2.03-3-2.63m17.48 2.53l-6.23 2.78" class="O"/><path vector-effect="non-scaling-stroke" d="M126.28 283.76q-2.4 1.31-3.85-1.12m16.86 3.82q-2.2 2-3.93.23" stroke="#ca8f6d"/></g><g fill="#d2a570"><path d="M149.77 31.21q-3.2 1.8-3.71 4.94c-.6 3.62 3.51 6.08 5.93 3.22a.56.55 48.1 0 1 .88.05q1.06 1.56 2.86 1.02.45-.13.48-.6l.08-1.3q.35-.06.53.65.11.45.4.09.3-.38.44.02a.61.59 1.5 0 0 .32.33q1.61.66 1.65-.36 1.75 1.22 3.97.45.59-.2.51.41c-.26 2.12-2.39 3.15-4.02 4.28a1 1 0 0 0-.07 1.6l.38.31a2.55 2.55 0 0 0 2.83.26c5.38-2.92 3.31-7.17 4.27-11.47l1.55-.57q-.84 5.44 3.89 6.54.03.94.64 1.82.44.63.2 1.27-.14.39.28.44.61.08 1 .7.25.42.74.51 2.28.42 3.88 2.07a1.48 1.46 68.8 0 0 .96.43q1.7.08 3.04 1.18a1.07 1.06-33.7 0 0 .99.19q2.95-.96 5.51.71.44.29.96.36 1.05.16 1.86.81.35.28.8.36 1.94.36 2.28 2.27.18 1.02.46 1.48.97 1.59 1.46.78v183.28q-1.53.45-2.36 1.76-.23.36-.65.44-1.63.33-2.81 1.47-.4.39-.94.57-.69.22-1.03.78-.29.48-.85.52c-1.41.1-2.84.77-3.65 1.98q-.25.37-.66.41-.26.03-.5.16l-1.01.55q-.37.2-.79.24-.69.07-1.04.74-.27.52-.78.24-1.29-.7-2.22.46-.3.37-.78.31-.77-.11-.8.5-.02.56-.58.68-1.72.36-3.05 1.59-.2.18-.09.42.08.2.2.32.26.28-.74.36-.68.05-.97.77-.18.45-.61.7-4.27 2.43-8.87 4.06c-1.37.49-2.53 1.56-3.8 2.28q-.37.21-.77.1-.71-.2-1.12-.02-1.82.8-3.74 1.43-.54.18-.82.67-.41.71-1.33.66-.49-.03-.8.36-.43.56-1.21.36-.47-.12-.92.08-2.31.99-5.08.73c.69-7.22.25-14.21.27-21.49.01-7.02-.56-13.95-.54-21 1.29-3.84 2.33-7.11 1.85-11.31q-1.07-9.42-3.1-18.96-.17-.82.38-.19.07.08.02.4-.06.39.08.75l3.75 9.86q3.57 8.25 6.97 16.47c.66 1.62.34 3.24-.34 4.69a2.28 2.27 32.5 0 0 .61 2.72q1.77 1.46 2.46 3.67a.47.47 0 0 0 .75.22q3.45-2.91 2.23-7.13c-.68-2.33-2.19-2.82-2.15-5.7q.13-8.67-2.26-16.97c3.2-3.18-1.72-5.57-2.68-8.45q-1.11-3.36-2.92-7.73-5.54-13.35-18.89-16.42-2.31-1.5-2.12-3.64 1.9-6.51 1.37-10.22c-.67-4.64-5.59-6.12-9.4-4.38-1.37.63-2.16 2.01-3.08 3.21a1.09 1.08 8.5 0 1-.52.38l-1.86.64q-.59.2-.31.75.58 1.15 1.83 1.64c.29 3.58-1.15 10.48 4.27 10.5a.46.46 0 0 1 .44.59q-.14.5-.76.9c-9.57 2.38-13.97 16.57-15.52 24.77q-1.09 5.8-1.92 11.3-1.85 7.19-1.83 14.34c.02 3.73-3.08 8.07-1.3 12.72a.34.33-29.3 0 0 .51.14c3.39-2.61 4.4-5 4.76-9.58.41-5.37 3.2-10.03 5.72-14.69l3.8-4.39q.52-.6.54.2c.13 4.6-.65 9.92.97 14.23q1.42 3.77 3.16 7.23.04 1.4.14 3.01.1 1.57-.01 3c-1 13.02-2.41 26.08 1.09 38.88q1.22 4.46 2.3 8.95.1.39.5.34l.32-.04q.25 1.39.02 2.01l-1.56 2.91q-.23-.25-.2-.48.11-.7-.17-.69-.15 0-.32-.02-.27-.02-.12-.26.55-.8-.81-1.05-.45-.09-.88.1l-.95.43a.06.06 0 0 1-.07-.08l.27-.51a.13.13 0 0 0-.15-.19q-1.64.42-3.41.15-.6-.09-.96.4l-.19.25q-.39.54-.94.17-1.27-.85-2.45-.09-.37.24-.8.19l-7.05-.83q-.45-.06-.84.18c-.86.52-2.77-.49-4.17.1q-.4.16-.82.06-2.16-.5-4.33-.06-.49.1-.96-.08c-2.27-.88-4.56-.05-6.54-.29q-3.25-.39-6.53-.41-.25 0-.49.1-.13.06-.27.16-.18.12-.39.04-1.23-.47-2.59-.39-.42.03-.79-.17-.91-.48-1.85-.73-.09-.02-.13-.11-.06-.17-.2-.26-.39-.25-.39.21v.49a.25.25 0 0 1-.25.25h-1.14q-.5 0-.6-.5-.05-.26 0-.58.09-.62-.39-.23-.45.36-.93.39l.15-4.51q2.88-.42 2.79-3.94-.21-8.42-.42-16.85c-.1-3.9-1.14-8.35-1.2-12.6-.07-4.59 2.17-9.47 3.18-14.23 2.88-2.27 2.59-8.34 2.4-11.84q-.32-6-.27-12.4a1.16 1.16 0 0 1 1.82-.94c1.83 1.29 3.93 2.68 6.24.62 3.81-3.41 6.29-8.66 7.98-13.42l.2-.21a.25.23-20.8 0 0 .07-.14l.14-1.3q.09-.73.83-.77 4.24-.23 6.55-3.87a.68.68 0 0 0-.75-1.02q-1.62.46-3.11-.35-1.92-1.04-3.29.67l-3.84 4.78-4.85 6.42a1.07 1.06-39.2 0 1-1.81-.18q-.95-1.99-2.05-4.64-1.64-3.94-7.19-10.67c3.38-1.23 3.98-3.97 3.54-7.07-.38-2.65-.94-12.61-4.67-12.98-3.14-.31-10.26-.63-11.12 3.95q-.72 3.83-1.54 6.44c-.76 2.39-1.32 4.94.83 6.36q.38.45-.31.86-5.12 3.04-8.62 6.89c-1.52 1.67-9.07 11.64-8.7 15.23q.69 6.73 2.95 13.06c1.58 4.44 1.19 8.29.9 12.76a2.37 2.36 8.1 0 0 1.85 2.46l4.23.93 3.74 21.38a7.14 7.07-43 0 1-.12 2.98l-2.76 10.72q-1.97-.03-3.03 1.79a.7.69-61.7 0 1-.91.28l-1.01-.51q-.48-.24-.86.14-.37.37-.79-.09-.81-.89-1.93-.78a.98.98 0 0 1-.85-.35q-1.49-1.82-3.93-1.63-.32.03-.47-.27-.11-.2-.29-.34-.18-.16-.6-.19-1.46-.12-2.38-1.17-.02-.02-.8-.53-.56-.37-1.27-.26a1.04 1.04 0 0 1-.86-.25q-.82-.73-1.85-.5-.53.11-1.02-.13l-3.52-1.75q-.17-.08-.27.07-.17.26-.42.31-.22.04-.51-.2-1.96-1.58-4.48-1.93-.41-.06-.42-.47 0-.16 0-.3a.68.68 0 0 0-.4-.62c-1.43-.67-2.83-1.15-4.03-2.26q-1.88-1.72-4.03-3.1-.48-.31-.73-.83-.4-.83-1.24-.81a.71.69 79.5 0 1-.67-.48c-.47-1.4-2.04-1.48-3.02-2.63q-.46.23-2.13-2.22a.36.36 0 0 0-.66.16q-.22 1.96-1.46 3.2V44q.13.62.46 1.06.66.87.66-.23v-.55q0-.33.3-.49.95-.5 2.14-.1a.72.7 39.1 0 0 .57-.05l7.76-4.12q.27-.14.57-.12.61.06.77-.76.05-.26.26-.43.31-.22.51.03.41.52.83-.27.38-.73 1.24-1.12.45-.2.92-.07.39.1.75-.07.36-.16.25-.55-.11-.4.16-.77.15-.2.39-.14.14.03.35-.07.12-.06.23-.08.94-.18.74-1.21a.04.04 0 0 1 .04-.05q.22.03.35.16.21.21.25-.21.06-.64 1.49-.44l-2.31 6.3a1.41 1.4 27.7 0 0 .51 1.62q1.12.79 2-.83.71-1.33 1.78-2.56a.99.98 21.3 0 1 .79-.34l5.56.21a1.01.99-15.1 0 1 .8.45c.79 1.19 1.43 4.15 3.62 2.68a1.14 1.12-10.8 0 0 .47-.68q.1-.45.37-.72.42.42 1.42.04l.54 1.3a1.59 1.59 0 0 0 2.51.6c1.53-1.29 1.2-4.29 2.01-6.27q.21-.53.75-.33 1.21.45 2.84.47l-1.75 1.02q-.39.23-.22.65.2.5.8.64.38.08.62.39 2.46 3.07 2.58-.18c.76 3.39 3.78 2.76 6.32 1.68a.73.72 57 0 1 .82.18q.92 1 2.29.96a.76.75-82.3 0 0 .69-.53q.32-1.02.22-2.05.3-.32.65.2a.23.23 0 0 0 .42-.14q-.16-2.7.83-3.76l-.01 6.04a.58.57 4.5 0 0 .5.58c2.71.34 5.48.79 7.79-.82q4.41-3.05.67-8.87l.58-.94q.44-.71-.35-.98-.51-.18.09-.76.17-.16.39-.24 1.01-.35 1.92-.03a.41.41 0 0 0 .5-.56q-.44-.95.45-1.18a.57.56 57.5 0 1 .52.12q.99.81 2.19.03.28-.18.21-.5-.04-.16.13-.24.2-.1.25-.1l2.53-.39q.46-.07.85.17.4.24.92.2.31-.02.44.27.21.51.77.68.32.09.96-.11 1.02-.33 2.07-.01 1.04.32 1.4-.26a.58.58 0 0 1 .9-.11q1.2 1.18 1.81 1.26.48.06.31-.39-.16-.42-.53-.71-.34-.27-.02-.57.33-.3.85-.36a.81.81 0 0 0 .65-.47q.19-.44.5-.77.28-.3.62-.07.13.08.1.22a.22.22 0 0 0 .34.23l2.06-1.33q.29-.19.63-.2 1.37-.06 2.68-.43.49-.13 1-.16 1.91-.12 3.36 1.12.04.04.03.1 0 .05.01.12.01.11.14.12.77.07 1.18-.6a.38.37-47 0 1 .62-.03l.18.25q.32.44.86.36c3.53-.52 6.32.94 9.77.32q.51-.09 1.05.26.41.26.88.13 1.4-.41 2.6.45.4.29.89.34c3.07.33 6.57.56 8.6-.94a2.51 2.51 0 0 1 3.13.12q.67.59 1.95.34c1.83-.36 3.53-.41 5.3-.77q.42-.08.79.15.62.39 1.31.23.52-.13.94.21l1.23.97q.29.24.67.31.49.1.6.53.06.22.2.39l2.49 3.17a.57.57 0 0 0 .96-.11q.08-.18.04-.37-.08-.5.37-.28l1.02.5q.34.17.11.46-.1.12-.08.27.02.21.23.18.67-.08.75.32zm-52.45-3.321a1.58 1.58 0 0 0-1.591-1.569l-.1.001a1.58 1.58 0 0 0-1.569 1.591l.08 11.44a1.58 1.58 0 0 0 1.591 1.569h.1A1.58 1.58 0 0 0 97.4 39.33l-.08-11.44zm-22.2.781a1.32 1.32 0 1 0-2.64 0 1.32 1.32 0 1 0 2.64 0zm5.28 8.97q-.7-2.05.75-3.79 1.29-1.53 2.54-.18.35.37.82.18 1.03-.4.68-1.35c-2.43-6.64-12.16 3.2-6.46 7.88 1.75 1.43 5.98.97 7.22-1.17a.71.71 0 0 0-.64-1.07l-4.01.12q-.68.02-.9-.62zm25.99 1.97q.99 1.39 2.59.89a.86.86 0 0 0 .6-.82q.01-3.02-.82-5.87c-2.23-7.64-12.27.48-8.89 5.28 1.56 2.22 3.7 1.39 5.71.33a.63.63 0 0 1 .81.19zm23.2.44c-.15 1.71-1.4 2.67-2.62 3.41q-3.96 2.39.54 3.45.81.2 2.36-1.04c3.75-3 3.14-7.94 2.6-13.16q-.05-.48-.45-.75-3.76-2.42-6.55.06c-3.65 3.24-1.4 9.81 3.66 7.69q.51-.21.46.34zm12.1-.04q.19.12.37.27.5.42.83.46.79.11 1.26-.71.27-.48.12-1.02-.94-3.43-.74-6.97a1.1 1.09 24.5 0 0-.32-.84q-.63-.61-1.51-.5a1.1 1.09-86 0 0-.92.81l-1.18 4.5q-.91 3.47-2.12.06-.4-1.11-.23-3.62.03-.57-.2-.86-.33-.4-.92-.36a.88.86-77.5 0 0-.71.46c-2.01 3.72-.48 13.01 5.48 8.34q.38-.29.79-.02zm-27.6-7.23q-.25-.77-.96-1.11a.96.96 0 0 0-1.36.8l-.49 6.71a1.46 1.45 20.5 0 0 .59 1.28q2.05 1.52 2.71-.31.91-2.49 2.48-4.54.76-.98.92.25.19 1.51.55 3.36.13.66.53.99.6.49 1.17.38 1.14-.23 1.34-1.38c.75-4.39-1.36-10.39-6.69-6.19q-.57.45-.79-.24zm-38.493.645a1.26 1.26 0 0 0-1.136-1.373l-.259-.025a1.26 1.26 0 0 0-1.373 1.136l-.606 6.411a1.26 1.26 0 0 0 1.136 1.373l.259.025a1.26 1.26 0 0 0 1.373-1.136l.606-6.411zM89.75 53.55q.01-.95.95-.94l4.19.02a1.58 1.57.9 0 0 1.58-1.52l.03-.74a1.5 1.5 0 0 0-1.66-1.54l-6.35.67a1.48 1.46-87.6 0 0-1.29 1.2q-.87 4.79-1.51 9.77c-.86 6.66 6.41 7.06 10.11 3.89q.35-.3.42-.76.14-.93-.47-1.35-.46-.32-1.51-.17-1.72.25-3.87.45-.94.09-.94-.85l-.01-1.7q0-.82.82-.78 2.71.15 5.27-.63.48-.15.49-.66l.01-.89q0-.69-.68-.82-2.46-.5-4.89.17a.57.57 0 0 1-.73-.56l.04-2.26zm-37.95.93a1.39 1.38-88.4 0 1 1.24-1.18l2.23-.21a1.05 1.05 0 0 0 .69-1.73c-2.03-2.36-4.91-1.73-6.58.48-1.11 1.47-1.33 4.43-2.16 6.51q-.18.45.12.83l.85 1.09a2.07 1.98-68.5 0 1 .4.98q.24 1.99 1.17 3.77.52 1.01 1.44.75a.7.7 0 0 0 .52-.68l.03-4.11q0-1.04 1.05-.99 2.23.12 2.53-1.97a.89.87-73.8 0 0-.49-.92q-1.17-.55-2.5-.3a.66.66 0 0 1-.78-.74l.24-1.58zm85.25 3.67l1.79-.14a1.44 1.43-27.6 0 0 .8-2.54q-.79-.65-1.93-.48a.84.84 0 0 1-.95-.71l-.35-2.56a.8.8 0 0 0-1.41-.39q-.75.93-.74 2.13 0 .54-.35.96-.6.72-1.41 1.21a.58.58 0 0 0-.06.95l.53.41q.39.3.52.78.32 1.22.42 2.46.46 5.29 5.7 3.95a1.45 1.45 0 0 0-.2-2.85q-.86-.1-1.69.15a.49.49 0 0 1-.62-.38l-.47-2.39q-.1-.52.42-.56zm9.23 2.94q1.51 1.36-.34.56-1.69-.73-2.6.36a1.79 1.78-59.5 0 0 .72 2.8c6.52 2.58 10.12-4.52 2.4-7.17a.41.4 27.2 0 1-.2-.61l.17-.23q.42-.58 1.09-.32l.95.38a1.25 1.24-79.1 0 0 1.7-1.16q0-1.21-1.08-1.74c-4.74-2.35-9.91 3.75-4.67 6.08q1.36.6 1.86 1.05zm-71.65-2.77c.8.18 1.49.7 2.18.64q.88-.09 1.1-1.15.1-.49-.17-.91-1.86-2.92-5.31-1.86-.53.16-.72-.37-.29-.79-1.03-1.1a1.18 1.17 11.8 0 0-1.64 1.07l-.09 8.71a1.87 1.86 89.6 0 0 1.91 1.89l.36-.01a1.54 1.53-84.7 0 0 1.46-1.22l1.05-5.1q.16-.75.9-.59zm52.78 4.97l1.06.73a1.39 1.39 0 0 0 2.17-1.28c-.24-2.59-.35-6.69-2.83-8-4.05-2.15-9.59 4.47-6.89 8.04 1.64 2.16 3.47.87 5.51.34q.53-.14.98.17zm-60.328-5.821a5.31 4.61-29.7 0 0-6.897-1.373 5.31 4.61-29.7 0 0-2.328 6.635 5.31 4.61-29.7 0 0 6.896 1.374 5.31 4.61-29.7 0 0 2.328-6.635zm37.778 1.651q.87-.68 1.29-1.15 2.33-2.6-1.12-2.09-.45.07-1.66 1.09a.68.67 45.3 0 1-.88-.01l-1.56-1.35a.98.96-32.4 0 0-.89-.19q-1.28.36-1.02 1.72.1.52.39.96 1.11 1.65-.58 2.95a1.33 1.2-8.4 0 0-.33.4q-.58 1.09-.13 2.16.2.47.71.39 1.32-.21 2.1-1.31a.59.59 0 0 1 .92-.05l1.75 1.98a1.15 1.14-20.6 0 0 .82.37q.65.02 1.22-.34a1.66 1.64 56.5 0 0 .47-2.36l-1.62-2.3q-.36-.5.12-.87zm7.83 6.12c9.32.6 6.5-13-.85-9.13q-.45.23-.85-.09l-.3-.24a.57.57 0 0 0-.9.3q-1.83 6.9-1.03 14.05a1.19 1.18 82.8 0 0 1.33 1.04l.7-.1q1.1-.15 1.15-1.27l.18-4.06q.03-.53.57-.5zM86.64 125.3c8.51 2.8 17.68-3.15 17.95-12.02.38-12.94-15.09-19.22-23.65-9.56-3.11 3.51-4.1 8.81-2.25 13.57.65 1.66.98 2.34.46 4.23q-.85 3.12-1.08 6.27a.41.4-9.1 0 0 .56.4l7.04-2.86q.48-.19.97-.03zm8.56 11.28q0-.44-.4.26-.32-1.54-1.26-2.69a1.53 1.49 75.6 0 0-.82-.5q-2.48-.54-4.97.05c-8.99 2.16-13.39 11.24-8.91 19.72a1.18 1.18 0 0 1 .11.8l-1.78 7.52a.6.6 0 0 0 .82.7l6.94-2.9a1.21 1.2 43.4 0 1 .85-.02c9.69 3.44 18.67-3.89 18.2-13.87-.08-1.77-1.21-2.37-2.79-2.49q.54-.25.25-.5 5.53 1.7 10.66.25.58-.16 1.13.06l7.12 2.83a.38.38 0 0 0 .51-.44l-1.69-7.51q-.11-.53.12-1.02c4.84-10.05-2.06-21.18-13.42-20.02a.9.88 6.9 0 0-.74.57q-2.71 7.1-9.95 9.34a1.17 1.15-85.5 0 0-.7.61c-1.23 2.55.16 7.15.72 9.25zM62.92 37.03q.75-2.09 2.62-3.35a1.19 1.19 0 0 1 1.85 1.15q-.43 3.13-3.6 3.34a.86.85 7.8 0 1-.87-1.14z"/><ellipse cx="0" cy="0" transform="matrix(-.522499 .85264 -.85264 -.522499 150.54 35.49)" rx="2.12" ry=".9"/><ellipse cx="0" cy="0" transform="matrix(-.553392 .832921 -.832921 -.553392 52.3 35.56)" rx="2.06" ry=".9"/><ellipse cx="0" cy="0" transform="matrix(-.553392 .832921 -.832921 -.553392 103.85 35.55)" rx="2.05" ry=".85"/><ellipse cx="0" cy="0" transform="matrix(-.684547 .728969 -.728969 -.684547 128.28 35.22)" rx="1.65" ry=".81"/><ellipse cx="0" cy="0" transform="matrix(-.67816 .734915 -.734915 -.67816 162.75 35.21)" rx="1.65" ry=".82"/><ellipse cx="0" cy="0" transform="matrix(-.563526 .826098 -.826098 -.563526 124.87 59.05)" rx="2.14" ry=".87"/><ellipse cx="0" cy="0" transform="matrix(-.580703 .814116 -.814116 -.580703 62.4 59.86)" rx="1.79" ry="1.41"/><path d="M113.41 58.52l.82-.41a.88.88 0 0 1 1.27.8l-.01 1.73a.88.88 0 0 1-.87.88l-1.85.01a.88.88 0 0 1-.71-1.42l1.05-1.34a.88.88 0 0 1 .3-.25z"/></g><g fill="#ffe7e4"><path d="M68.87 31.28q3.74 5.82-.67 8.87c-2.31 1.61-5.08 1.16-7.79.82a.58.57 4.5 0 1-.5-.58l.01-6.04 1.21-8.33q.19-1.33 1.54-1.3l.43.02a.8.79 0 0 1 .78.77q.07 2.71-.92 5.27a.67.67 0 0 0 1.09.73q1.8-1.72 4.82-.23zm-5.95 5.75a.86.85 7.8 0 0 .87 1.14q3.17-.21 3.6-3.34a1.19 1.19 0 0 0-1.85-1.15q-1.87 1.26-2.62 3.35zm-27.34 2.45q-.27.27-.37.72a1.14 1.12-10.8 0 1-.47.68c-2.19 1.47-2.83-1.49-3.62-2.68a1.01.99-15.1 0 0-.8-.45l-5.56-.21a.99.98 21.3 0 0-.79.34q-1.07 1.23-1.78 2.56-.88 1.62-2 .83a1.41 1.4 27.7 0 1-.51-1.62l2.31-6.3c.99-2.54 2.7-7.02 5.4-8.02a1.75 1.74 62.6 0 1 2.04.65q4.32 6.29 6.15 13.5zm-9.69-5.98a.33.33 0 0 0 .33.44l3.08-.15a.33.33 0 0 0 .28-.48l-1.72-3.41a.33.33 0 0 0-.6.03l-1.37 3.57z"/><rect x="-1.63" y="-7.3" transform="matrix(.999976 -.006981 .006981 .999976 95.73 33.62)" width="3.26" height="14.6" rx="1.58"/><circle cx="73.8" cy="28.67" r="1.32"/><path d="M45.65 35.29q-1.63-.02-2.84-.47-.54-.2-.75.33c-.81 1.98-.48 4.98-2.01 6.27a1.59 1.59 0 0 1-2.51-.6l-.54-1.3q.08-4.23.18-8.52.03-1.29 1.52-.9.47.12.78.5l.36.46q.37.45.94.36 5.83-.84 4.87 3.87zm127.29 5.79q-4.73-1.1-3.89-6.54c1.15-7 10.21-4.53 9.32.14-.38 1.98-2.9 2.13-4.4 2.58q-.98.29.02.51l2.17.47a.97.97 0 0 1 .67 1.38q-1.03 2.05-3.89 1.46zm2.1-7.28q.73-.13.15-.59-.57-.44-1.69-.2-.61.14-.75.65-.16.56.41.46l1.88-.32zM81.3 38.26l4.01-.12a.71.71 0 0 1 .64 1.07c-1.24 2.14-5.47 2.6-7.22 1.17-5.7-4.68 4.03-14.52 6.46-7.88q.35.95-.68 1.35-.47.19-.82-.18-1.25-1.35-2.54.18-1.45 1.74-.75 3.79.22.64.9.62zm-23.28-.21q.1 1.03-.22 2.05a.76.75-82.3 0 1-.69.53q-1.37.04-2.29-.96a.73.72 57 0 0-.82-.18c-2.54 1.08-5.56 1.71-6.32-1.68-.14-3.66 3.72-8.9 7.74-6.6 2.16 1.24 2.22 4.53 2.6 6.84zm-6.86-.774a2.06.9 123.6 0 0 1.89-1.218 2.06.9 123.6 0 0 .39-2.214 2.06.9 123.6 0 0-1.89 1.218 2.06.9 123.6 0 0-.39 2.214zm55.23 2.334a.63.63 0 0 0-.81-.19c-2.01 1.06-4.15 1.89-5.71-.33-3.38-4.8 6.66-12.92 8.89-5.28q.83 2.85.82 5.87a.86.86 0 0 1-.6.82q-1.6.5-2.59-.89zm-3.674-2.352a2.05.85 123.6 0 0 1.843-1.237 2.05.85 123.6 0 0 .426-2.178 2.05.85 123.6 0 0-1.843 1.237 2.05.85 123.6 0 0-.426 2.178zm26.414 2.452c-5.06 2.12-7.31-4.45-3.66-7.69q2.79-2.48 6.55-.06.4.27.45.75c.54 5.22 1.15 10.16-2.6 13.16q-1.55 1.24-2.36 1.04-4.5-1.06-.54-3.45c1.22-.74 2.47-1.7 2.62-3.41q.05-.55-.46-.34zm-1.98-3.287a1.65.81 133.2 0 0 1.72-.648 1.65.81 133.2 0 0 .539-1.757 1.65.81 133.2 0 0-1.72.648 1.65.81 133.2 0 0-.539 1.757zm13.75 3.607c-5.96 4.67-7.49-4.62-5.48-8.34a.88.86-77.5 0 1 .71-.46q.59-.04.92.36.23.29.2.86-.17 2.51.23 3.62 1.21 3.41 2.12-.06l1.18-4.5a1.1 1.09-86 0 1 .92-.81q.88-.11 1.51.5a1.1 1.09 24.5 0 1 .32.84q-.2 3.54.74 6.97.15.54-.12 1.02-.47.82-1.26.71-.33-.04-.83-.46-.18-.15-.37-.27-.41-.27-.79.02zm15.39-1.49l-.08 1.3q-.03.47-.48.6-1.8.54-2.86-1.02a.56.55 48.1 0 0-.88-.05c-2.42 2.86-6.53.4-5.93-3.22q.51-3.14 3.71-4.94c5.71-2.4 5.98 3.94 6.52 7.33zm-6.858-1.242a2.12.9 121.5 0 0 1.875-1.337 2.12.9 121.5 0 0 .34-2.278 2.12.9 121.5 0 0-1.875 1.337 2.12.9 121.5 0 0-.34 2.278zM167.5 35.11c-.96 4.3 1.11 8.55-4.27 11.47a2.55 2.55 0 0 1-2.83-.26l-.38-.31a1 1 0 0 1 .07-1.6c1.63-1.13 3.76-2.16 4.02-4.28q.08-.61-.51-.41-2.22.77-3.97-.45c-2.43-2.18-2.09-4.96.35-7.01q5.36-4.52 7.52 2.85zm-5.869 1.313a1.65.82 132.7 0 0 1.722-.657 1.65.82 132.7 0 0 .516-1.769 1.65.82 132.7 0 0-1.722.657 1.65.82 132.7 0 0-.516 1.769zM114.88 33.02c5.33-4.2 7.44 1.8 6.69 6.19q-.2 1.15-1.34 1.38-.57.11-1.17-.38-.4-.33-.53-.99-.36-1.85-.55-3.36-.16-1.23-.92-.25-1.57 2.05-2.48 4.54-.66 1.83-2.71.31a1.46 1.45 20.5 0 1-.59-1.28l.49-6.71a.96.96 0 0 1 1.36-.8q.71.34.96 1.11.22.69.79.24z"/><rect x="-1.39" y="-4.48" transform="matrix(.995562 .094108 -.094108 .995562 73.91 36.5)" width="2.78" height="8.96" rx="1.26"/><path d="M90.44 56.37q2.43-.67 4.89-.17.68.13.68.82l-.01.89q-.01.51-.49.66-2.56.78-5.27.63-.82-.04-.82.78l.01 1.7q0 .94.94.85 2.15-.2 3.87-.45 1.05-.15 1.51.17.61.42.47 1.35-.07.46-.42.76c-3.7 3.17-10.97 2.77-10.11-3.89q.64-4.98 1.51-9.77a1.48 1.46-87.6 0 1 1.29-1.2l6.35-.67a1.5 1.5 0 0 1 1.66 1.54l-.03.74a1.58 1.57.9 0 1-1.58 1.52l-4.19-.02q-.94-.01-.95.94l-.04 2.26a.57.57 0 0 0 .73.56zm-38.1.43q1.33-.25 2.5.3a.89.87-73.8 0 1 .49.92q-.3 2.09-2.53 1.97-1.05-.05-1.05.99l-.03 4.11a.7.7 0 0 1-.52.68q-.92.26-1.44-.75-.93-1.78-1.17-3.77a2.07 1.98-68.5 0 0-.4-.98l-.85-1.09q-.3-.38-.12-.83c.83-2.08 1.05-5.04 2.16-6.51 1.67-2.21 4.55-2.84 6.58-.48a1.05 1.05 0 0 1-.69 1.73l-2.23.21a1.39 1.38-88.4 0 0-1.24 1.18l-.24 1.58a.66.66 0 0 0 .78.74zm84.71 1.35q-.52.04-.42.56l.47 2.39a.49.49 0 0 0 .62.38q.83-.25 1.69-.15a1.45 1.45 0 0 1 .2 2.85q-5.24 1.34-5.7-3.95-.1-1.24-.42-2.46-.13-.48-.52-.78l-.53-.41a.58.58 0 0 1 .06-.95q.81-.49 1.41-1.21.35-.42.35-.96-.01-1.2.74-2.13a.8.8 0 0 1 1.41.39l.35 2.56a.84.84 0 0 0 .95.71q1.14-.17 1.93.48a1.44 1.43-27.6 0 1-.8 2.54l-1.79.14zm9.23 2.94q-.5-.45-1.86-1.05c-5.24-2.33-.07-8.43 4.67-6.08q1.08.53 1.08 1.74a1.25 1.24-79.1 0 1-1.7 1.16l-.95-.38q-.67-.26-1.09.32l-.17.23a.41.4 27.2 0 0 .2.61c7.72 2.65 4.12 9.75-2.4 7.17a1.79 1.78-59.5 0 1-.72-2.8q.91-1.09 2.6-.36 1.85.8.34-.56zm-72.55-2.18l-1.05 5.1a1.54 1.53-84.7 0 1-1.46 1.22l-.36.01a1.87 1.86 89.6 0 1-1.91-1.89l.09-8.71a1.18 1.17 11.8 0 1 1.64-1.07q.74.31 1.03 1.1.19.53.72.37 3.45-1.06 5.31 1.86.27.42.17.91-.22 1.06-1.1 1.15c-.69.06-1.38-.46-2.18-.64q-.74-.16-.9.59zm52.7 4.21c-2.04.53-3.87 1.82-5.51-.34-2.7-3.57 2.84-10.19 6.89-8.04 2.48 1.31 2.59 5.41 2.83 8a1.39 1.39 0 0 1-2.17 1.28l-1.06-.73q-.45-.31-.98-.17zm-2.766-2.302a2.14.87 124.3 0 0 1.925-1.278 2.14.87 124.3 0 0 .487-2.258 2.14.87 124.3 0 0-1.925 1.278 2.14.87 124.3 0 0-.487 2.258zm-56.582-3.349a5.31 4.61-29.7 0 1-2.328 6.635 5.31 4.61-29.7 0 1-6.896-1.373 5.31 4.61-29.7 0 1 2.328-6.635 5.31 4.61-29.7 0 1 6.897 1.374zm-5.722 3.848a1.79 1.41 125.5 0 0 2.187-.639 1.79 1.41 125.5 0 0-.108-2.276 1.79 1.41 125.5 0 0-2.187.639 1.79 1.41 125.5 0 0 .108 2.276zm43.38-1.327l1.62 2.3a1.66 1.64 56.5 0 1-.47 2.36q-.57.36-1.22.34a1.15 1.14-20.6 0 1-.82-.37l-1.75-1.98a.59.59 0 0 0-.92.05q-.78 1.1-2.1 1.31-.51.08-.71-.39-.45-1.07.13-2.16a1.33 1.2-8.4 0 1 .33-.4q1.69-1.3.58-2.95-.29-.44-.39-.96-.26-1.36 1.02-1.72a.98.96-32.4 0 1 .89.19l1.56 1.35a.68.67 45.3 0 0 .88.01q1.21-1.02 1.66-1.09 3.45-.51 1.12 2.09-.42.47-1.29 1.15-.48.37-.12.87zm7.38 5.75l-.18 4.06q-.05 1.12-1.15 1.27l-.7.1a1.19 1.18 82.8 0 1-1.33-1.04q-.8-7.15 1.03-14.05a.57.57 0 0 1 .9-.3l.3.24q.4.32.85.09c7.35-3.87 10.17 9.73.85 9.13q-.54-.03-.57.5zm1.29-7.22a.88.88 0 0 0-.3.25l-1.05 1.34a.88.88 0 0 0 .71 1.42l1.85-.01a.88.88 0 0 0 .87-.88l.01-1.73a.88.88 0 0 0-1.27-.8l-.82.41zm-23.14 55.73q1.66-1.02-.3-1.02-.74.01-1-.16-1.71-1.05.29-.95 1.5.08 3.22 1.15.38.24.04.54-2.79 2.44-6.37 1.45-.39-.1-.72.13-1.3.91-2.54-.26a1.24 1.24 0 0 1-.4-.89l-.11-5.21q0-.32.32-.32h.35q.12 0 .12.12.1 2.57.14 5.17.02 1.29 1.38.87.43-.14.58-.56.22-.6.72-1.04a.42.41-27.4 0 1 .68.21q.04.18-.01.32-.32.89.63.91 2.19.03 2.98-.46zm8.79.72l1.05-.28a.72.71-9.6 0 0 .54-.75q-.06-.61-.61-.95-.59-.35-.92.26-.34.62-.06 1.72-1.24.75-2.32.56-.45-.08-.76.28-.81.92-1.86 1.56-1.72 1.05-.51-.64.18-.26.97-.64a1.11 1.1 81.8 0 0 .62-.83q.22-1.43-.34-2.73a.17.17 0 0 1 .13-.23q.13-.03.26-.05.12-.02.18.07.43.67.72 1.41.27.71.55.87.4.23.92-.11.36-.23.47-.65.31-1.16 1.33-1.75.45-.25.9 0 .9.5 1.18 1.51a1.59 1.59 0 0 1-1.78 2q-.84-.14-.66-.63zm6.56 14.99q-.3-1.59-.14-3.19.11-1.08.51-.08.54 1.34.39 4.33-.04.8.66 1.18l.66.36q.86.47.6-.48-.48-1.76.83-3.17.31-.34.69-.06 1.57 1.14 2.7 2.73.32.46-.1.83l-.86.74q-.47.41-1.02.13-1.21-.6-2.51.01a1.35 1.32 37.5 0 1-.84.1q-.69-.15-1.16-.66-.42-.46-.93-.09-1.25.94-2.78.54-.08-.02-.08-.11l.02-.3a.27.27 0 0 1 .26-.26q1.16-.02 2.17-.63a.42.42 0 0 0 .09-.65l-2.5-2.63q-.39-.42.18-.49l.25-.04q.11-.01.18.06l2.09 2.16a.38.37 17.5 0 0 .64-.33zm3.33.56l.19 1.37a.49.49 0 0 0 .96.06q.39-1.41-.55-1.87a.42.42 0 0 0-.6.44z"/><rect x="-.47" y="-3.39" transform="matrix(.998027 -.062791 .062791 .998027 114.08 129.84)" width=".94" height="6.78" rx=".44"/><path d="M95.2 136.58l6.24 6.08q.29.25-.25.5-4.82-1.87-6.39-6.32.4-.7.4-.26zm-6.02 8.54l-1 .68q-.28.19-.49-.07l-.2-.25a.36.35-43.1 0 1 .02-.47q1.11-1.18 2.58-.98.57.08.86.46.37.47.2 1.05-.24.86-.76.14l-.3-.4q-.38-.53-.91-.16zm-6.73 2.68l.62 3.46a.3.29 76.1 0 1-.19.33q-.25.08-.34-.09-2.43-4.59 1.61-6.97a.92.92 0 0 1 1.06.09q.65.52.87 1.35a1.22 1.21 69.2 0 0 1.72.78q2.27-1.14 4.28.55a.55.55 0 0 0 .9-.41l.03-2.41a.34.34 0 0 1 .65-.12q.57 1.4.1 2.86a.96.95-87.2 0 1-.69.63q-1.57.36-3.1-.21-.48-.18-.96-.02-3.07 1-5.96-.29-.75-.34-.6.47zm1.68-.93q.39.22.7.11.46-.17.38-.65-.06-.44-.34-.75-.48-.54-.92.02-.64.82.18 1.27zm45.19 22.98q13.35 3.07 18.89 16.42 1.81 4.37 2.92 7.73c.96 2.88 5.88 5.27 2.68 8.45l-.91-2.3a.9.9 0 0 0-1.4-.37l-5.96 4.7-3.75-9.86q-.14-.36-.08-.75.05-.32-.02-.4-.55-.63-.38.19 2.03 9.54 3.1 18.96c.48 4.2-.56 7.47-1.85 11.31-7.05 3.7-16.14 3.01-24.49 2.56q-1.74-3.46-3.16-7.23c-1.62-4.31-.84-9.63-.97-14.23q-.02-.8-.54-.2l-3.8 4.39c-3.35-.2-5.35-.13-7.86-2.93q.83-5.5 1.92-11.3c1.55-8.2 5.95-22.39 15.52-24.77q-1.35.76-1.95 1.53-.36.46-.1.98l3.14 6.1a1.99 1.95-87.8 0 0 .67.74q1.73 1.13 3.13-.51 3.66-4.32 5.25-9.21zm-69.57 8.18q.71-.23 1.5.24-.75 1.08-.49 2.24.1.48.54.73c1.82 1.05 4.83 1.16 5.05-1.56q.03-.4.23-.52.23-.14.64-.17 1.56 4.36 1.54 8.77c-.02 9.48.87 18.16.9 27.25q-8.8.79-17.12-1.4 1.24-7.83 2.99-23.11.73-6.4 4.22-12.47z"/></g><path d="M52.54 213.61q8.32 2.19 17.12 1.4-.98 6.39-3.77 12.72-.87 1.98 1.28 1.77l4.4-.42c-1.01 4.76-3.25 9.64-3.18 14.23.06 4.25 1.1 8.7 1.2 12.6q.21 8.43.42 16.85.09 3.52-2.79 3.94-2.06.52-5.07.24l-1.27-11.91q-.35-3.28-1.4-.16l-3.93 11.67q-2.22.4-4.69-.11l-1.62-.2a1 .99-80.3 0 1-.85-1.21l2.45-11.23 2.76-10.72a7.14 7.07-43 0 0 .12-2.98l-3.74-21.38q1.32-2.09 1.06-7.07 3.4-3.44 1.19-7.44-.03-.09.31-.59zm-3.09 71.06q1.54.6 3 2.63 1.06 1.47 2.94 1.81.87 1.22.79 1.68-.33 1.86-1.75.61-4.07-3.59-4.98-6.73zm17.48 2.53q-1.67 2.83-6.39 4.75a.68.68 0 0 1-.92-.78q.26-1.11 1.08-1.19l6.23-2.78z" fill="#7089a1"/><path d="M101.44 142.66l-6.24-6.08c-.56-2.1-1.95-6.7-.72-9.25a1.17 1.15-85.5 0 1 .7-.61q7.24-2.24 9.95-9.34a.9.88 6.9 0 1 .74-.57c11.36-1.16 18.26 9.97 13.42 20.02q-.23.49-.12 1.02l1.69 7.51a.38.38 0 0 1-.51.44l-7.12-2.83q-.55-.22-1.13-.06-5.13 1.45-10.66-.25zm3.54-12.37l-2.09-2.16q-.07-.07-.18-.06l-.25.04q-.57.07-.18.49l2.5 2.63a.42.42 0 0 1-.09.65q-1.01.61-2.17.63a.27.27 0 0 0-.26.26l-.02.3q0 .09.08.11 1.53.4 2.78-.54.51-.37.93.09.47.51 1.16.66a1.35 1.32 37.5 0 0 .84-.1q1.3-.61 2.51-.01.55.28 1.02-.13l.86-.74q.42-.37.1-.83-1.13-1.59-2.7-2.73-.38-.28-.69.06-1.31 1.41-.83 3.17.26.95-.6.48l-.66-.36q-.7-.38-.66-1.18.15-2.99-.39-4.33-.4-1-.51.08-.16 1.6.14 3.19a.38.37 17.5 0 1-.64.33zm9.384-3.424a.44.44 0 0 0-.467-.411l-.06.004a.44.44 0 0 0-.411.467l.37 5.888a.44.44 0 0 0 .467.411l.06-.004a.44.44 0 0 0 .412-.467l-.371-5.888zm-5.414 3.654a.42.42 0 0 1 .6-.44q.94.46.55 1.87a.49.49 0 0 1-.96-.06l-.19-1.37zm-51.27 46q1.33.64 2.07 1.51-3.49 6.07-4.22 12.47-1.75 15.28-2.99 23.11-.34.5-.31.59l-2.82-1.77a.85.85 0 0 0-1.26 1l2.89 8.21q.26 4.98-1.06 7.07l-4.23-.93a2.37 2.36 8.1 0 1-1.85-2.46c.29-4.47.68-8.32-.9-12.76q-2.26-6.33-2.95-13.06c-.37-3.59 7.18-13.56 8.7-15.23q3.5-3.85 8.62-6.89.69-.41.31-.86zm9.42 1.36q1.76.23 3.54 1.94 5.55 6.73 7.19 10.67 1.1 2.65 2.05 4.64a1.07 1.06-39.2 0 0 1.81.18l4.85-6.42q.92 1.48 3.2 2.21c-1.69 4.76-4.17 10.01-7.98 13.42-2.31 2.06-4.41.67-6.24-.62a1.16 1.16 0 0 0-1.82.94q-.05 6.4.27 12.4c.19 3.5.48 9.57-2.4 11.84l-4.4.42q-2.15.21-1.28-1.77 2.79-6.33 3.77-12.72c-.03-9.09-.92-17.77-.9-27.25q.02-4.41-1.54-8.77-.75-.44-.12-1.11z" fill="#b97b6e"/><g fill="#e1afa6"><path d="M104.59 113.28c-.27 8.87-9.44 14.82-17.95 12.02q-.49-.16-.97.03l-7.04 2.86a.41.4-9.1 0 1-.56-.4q.23-3.15 1.08-6.27c.52-1.89.19-2.57-.46-4.23-1.85-4.76-.86-10.06 2.25-13.57 8.56-9.66 24.03-3.38 23.65 9.56zm-14.32.97q-.79.49-2.98.46-.95-.02-.63-.91.05-.14.01-.32a.42.41-27.4 0 0-.68-.21q-.5.44-.72 1.04-.15.42-.58.56-1.36.42-1.38-.87-.04-2.6-.14-5.17 0-.12-.12-.12h-.35q-.32 0-.32.32l.11 5.21a1.24 1.24 0 0 0 .4.89q1.24 1.17 2.54.26.33-.23.72-.13 3.58.99 6.37-1.45.34-.3-.04-.54-1.72-1.07-3.22-1.15-2-.1-.29.95.26.17 1 .16 1.96 0 .3 1.02zm8.79.72q-.18.49.66.63a1.59 1.59 0 0 0 1.78-2q-.28-1.01-1.18-1.51-.45-.25-.9 0-1.02.59-1.33 1.75-.11.42-.47.65-.52.34-.92.11-.28-.16-.55-.87-.29-.74-.72-1.41-.06-.09-.18-.07-.13.02-.26.05a.17.17 0 0 0-.13.23q.56 1.3.34 2.73a1.11 1.1 81.8 0 1-.62.83q-.79.38-.97.64-1.21 1.69.51.64 1.05-.64 1.86-1.56.31-.36.76-.28 1.08.19 2.32-.56z"/><path d="M99.06 114.97q-.28-1.1.06-1.72.33-.61.92-.26.55.34.61.95a.72.71-9.6 0 1-.54.75l-1.05.28z"/></g><path d="M175.04 33.8l-1.88.32q-.57.1-.41-.46.14-.51.75-.65 1.12-.24 1.69.2.58.46-.15.59zM94.8 136.84q1.57 4.45 6.39 6.32c1.58.12 2.71.72 2.79 2.49.47 9.98-8.51 17.31-18.2 13.87a1.21 1.2 43.4 0 0-.85.02l-6.94 2.9a.6.6 0 0 1-.82-.7l1.78-7.52a1.18 1.18 0 0 0-.11-.8c-4.48-8.48-.08-17.56 8.91-19.72q2.49-.59 4.97-.05a1.53 1.49 75.6 0 1 .82.5q.94 1.15 1.26 2.69zm-4.71 8.44l.3.4q.52.72.76-.14.17-.58-.2-1.05-.29-.38-.86-.46-1.47-.2-2.58.98a.36.35-43.1 0 0-.02.47l.2.25q.21.26.49.07l1-.68q.53-.37.91.16zm-7.04 2.05q2.89 1.29 5.96.29.48-.16.96.02 1.53.57 3.1.21a.96.95-87.2 0 0 .69-.63q.47-1.46-.1-2.86a.34.34 0 0 0-.65.12l-.03 2.41a.55.55 0 0 1-.9.41q-2.01-1.69-4.28-.55a1.22 1.21 69.2 0 1-1.72-.78q-.22-.83-.87-1.35a.92.92 0 0 0-1.06-.09q-4.04 2.38-1.61 6.97.09.17.34.09a.3.29 76.1 0 0 .19-.33l-.62-3.46q-.15-.81.6-.47zm1.08-.46q-.82-.45-.18-1.27.44-.56.92-.02.28.31.34.75.08.48-.38.65-.31.11-.7-.11zm58.43 77.06c-.02 7.05.55 13.98.54 21-.02 7.28.42 14.27-.27 21.49q-.89 9.12-2.35 15.83-.25 1.1-.85 1l-4.41-.32c-.35-.25-.61-.66-.61-1.14q-.02-5.7-.4-11.38c-.74-10.91-.74-21.65-2.17-32.49a.63.62-20.9 0 0-.97-.43q-1.19.8-1.49 2.35-1.67 8.65-2.68 17.41-.65 5.61.94 18.25.33 2.62-1 4.93l-4.43.2-.32.04q-.4.05-.5-.34-1.08-4.49-2.3-8.95c-3.5-12.8-2.09-25.86-1.09-38.88q.11-1.43.01-3-.1-1.61-.14-3.01c8.35.45 17.44 1.14 24.49-2.56z" fill="#d39568"/><path fill="#856c58" d="M70.64 179.82q-1.78-1.71-3.54-1.94l.57-2.45q.15-.63.79-.65l.83-.02a1.04 1.04 0 0 0 .95-.69q2.27-6.31-1.22-12.12-.47-.79-.49.13-.05 3.86-2.86 6.48-.46.43-.82-.08l-.67-.92a.66.66 0 0 0-1.1.04l-.39.66q-.4.65.13 1.2l1.06 1.1q.34.36.38.86c.15 2.35.92 8.11-3.01 6.85q-.79-.47-1.5-.24-.74-.87-2.07-1.51c-2.15-1.42-1.59-3.97-.83-6.36q.82-2.61 1.54-6.44c.86-4.58 7.98-4.26 11.12-3.95 3.73.37 4.29 10.33 4.67 12.98.44 3.1-.16 5.84-3.54 7.07z"/><path d="M127.2 166.21q-.19 2.14 2.12 3.64-1.59 4.89-5.25 9.21-1.4 1.64-3.13.51a1.99 1.95-87.8 0 1-.67-.74l-3.14-6.1q-.26-.52.1-.98.6-.77 1.95-1.53.62-.4.76-.9a.46.46 0 0 0-.44-.59c-5.42-.02-3.98-6.92-4.27-10.5q5.06-1.59 7.92 2.49.31.44.75.15l.61-.39q.44-.29.87.02.54.38.35 1.24-.11.51-.2 1.04-.07.47.17.88l1.5 2.55zm-60.1 11.67q-.63.67.12 1.11-.41.03-.64.17-.2.12-.23.52c-.22 2.72-3.23 2.61-5.05 1.56q-.44-.25-.54-.73-.26-1.16.49-2.24c3.93 1.26 3.16-4.5 3.01-6.85q-.04-.5-.38-.86l-1.06-1.1q-.53-.55-.13-1.2l.39-.66a.66.66 0 0 1 1.1-.04l.67.92q.36.51.82.08 2.81-2.62 2.86-6.48.02-.92.49-.13 3.49 5.81 1.22 12.12a1.04 1.04 0 0 1-.95.69l-.83.02q-.64.02-.79.65l-.57 2.45zm22.64 13.22q-2.28-.73-3.2-2.21l3.84-4.78q1.37-1.71 3.29-.67 1.49.81 3.11.35a.68.68 0 0 1 .75 1.02q-2.31 3.64-6.55 3.87-.74.04-.83.77l-.14 1.3a.25.23-20.8 0 1-.07.14l-.2.21zm64.07 11.35q2.39 8.3 2.26 16.97c-.04 2.88 1.47 3.37 2.15 5.7q1.22 4.22-2.23 7.13a.47.47 0 0 1-.75-.22q-.69-2.21-2.46-3.67a2.28 2.27 32.5 0 1-.61-2.72c.68-1.45 1-3.07.34-4.69q-3.4-8.22-6.97-16.47l5.96-4.7a.9.9 0 0 1 1.4.37l.91 2.3zm-52.07 3.84c2.51 2.8 4.51 2.73 7.86 2.93-2.52 4.66-5.31 9.32-5.72 14.69-.36 4.58-1.37 6.97-4.76 9.58a.34.33-29.3 0 1-.51-.14c-1.78-4.65 1.32-8.99 1.3-12.72q-.02-7.15 1.83-14.34zm-49.51 7.91q2.21 4-1.19 7.44l-2.89-8.21a.85.85 0 0 1 1.26-1l2.82 1.77zm-1.37 62.23q2.47.51 4.69.11c-1.18 4.72-2.14 7.18-.16 12.57q-1.88-.34-2.94-1.81-1.46-2.03-3-2.63l1.41-8.24zm16.36.27l-.15 4.51-.14 5.99-6.23 2.78q4.53-6.32 1.45-13.04 3.01.28 5.07-.24zm59.62 3.73q.59 1.7-.56 3.33-2.4 1.31-3.85-1.12.23-.62-.02-2.01l4.43-.2zm12.79 2.82q.11 2.13-.34 3.21-2.2 2-3.93.23-.49-1.94-.14-3.76l4.41.32z" fill="#f6be8f"/><path d="M8.62 0h180.86q7.04 1.8 8.52 8.61v47.85q-.49.81-1.46-.78-.28-.46-.46-1.48-.34-1.91-2.28-2.27-.45-.08-.8-.36-.81-.65-1.86-.81-.52-.07-.96-.36-2.56-1.67-5.51-.71a1.07 1.06-33.7 0 1-.99-.19q-1.34-1.1-3.04-1.18a1.48 1.46 68.8 0 1-.96-.43q-1.6-1.65-3.88-2.07-.49-.09-.74-.51-.39-.62-1-.7-.42-.05-.28-.44.24-.64-.2-1.27-.61-.88-.64-1.82 2.86.59 3.89-1.46a.97.97 0 0 0-.67-1.38l-2.17-.47q-1-.22-.02-.51c1.5-.45 4.02-.6 4.4-2.58.89-4.67-8.17-7.14-9.32-.14l-1.55.57q-2.16-7.37-7.52-2.85c-2.44 2.05-2.78 4.83-.35 7.01q-.04 1.02-1.65.36a.61.59 1.5 0 1-.32-.33q-.14-.4-.44-.02-.29.36-.4-.09-.18-.71-.53-.65c-.54-3.39-.81-9.73-6.52-7.33q-.08-.4-.75-.32-.21.03-.23-.18-.02-.15.08-.27.23-.29-.11-.46l-1.02-.5q-.45-.22-.37.28.04.19-.04.37a.57.57 0 0 1-.96.11l-2.49-3.17q-.14-.17-.2-.39-.11-.43-.6-.53-.38-.07-.67-.31l-1.23-.97q-.42-.34-.94-.21-.69.16-1.31-.23-.37-.23-.79-.15c-1.77.36-3.47.41-5.3.77q-1.28.25-1.95-.34a2.51 2.51 0 0 0-3.13-.12c-2.03 1.5-5.53 1.27-8.6.94q-.49-.05-.89-.34-1.2-.86-2.6-.45-.47.13-.88-.13-.54-.35-1.05-.26c-3.45.62-6.24-.84-9.77-.32q-.54.08-.86-.36l-.18-.25a.38.37-47 0 0-.62.03q-.41.67-1.18.6-.13-.01-.14-.12-.01-.07-.01-.12.01-.06-.03-.1-1.45-1.24-3.36-1.12-.51.03-1 .16-1.31.37-2.68.43-.34.01-.63.2l-2.06 1.33a.22.22 0 0 1-.34-.23q.03-.14-.1-.22-.34-.23-.62.07-.31.33-.5.77a.81.81 0 0 1-.65.47q-.52.06-.85.36-.32.3.02.57.37.29.53.71.17.45-.31.39-.61-.08-1.81-1.26a.58.58 0 0 0-.9.11q-.36.58-1.4.26-1.05-.32-2.07.01-.64.2-.96.11-.56-.17-.77-.68-.13-.29-.44-.27-.52.04-.92-.2-.39-.24-.85-.17l-2.53.39q-.05 0-.25.1-.17.08-.13.24.07.32-.21.5-1.2.78-2.19-.03a.57.56 57.5 0 0-.52-.12q-.89.23-.45 1.18a.41.41 0 0 1-.5.56q-.91-.32-1.92.03-.22.08-.39.24-.6.58-.09.76.79.27.35.98l-.58.94q-3.02-1.49-4.82.23a.67.67 0 0 1-1.09-.73q.99-2.56.92-5.27a.8.79 0 0 0-.78-.77l-.43-.02q-1.35-.03-1.54 1.3l-1.21 8.33q-.99 1.06-.83 3.76a.23.23 0 0 1-.42.14q-.35-.52-.65-.2c-.38-2.31-.44-5.6-2.6-6.84-4.02-2.3-7.88 2.94-7.74 6.6q-.12 3.25-2.58.18-.24-.31-.62-.39-.6-.14-.8-.64-.17-.42.22-.65l1.75-1.02q.96-4.71-4.87-3.87-.57.09-.94-.36l-.36-.46q-.31-.38-.78-.5-1.49-.39-1.52.9-.1 4.29-.18 8.52-1 .38-1.42-.04-1.83-7.21-6.15-13.5a1.75 1.74 62.6 0 0-2.04-.65c-2.7 1-4.41 5.48-5.4 8.02q-1.43-.2-1.49.44-.04.42-.25.21-.13-.13-.35-.16a.04.04 0 0 0-.04.05q.2 1.03-.74 1.21-.11.02-.23.08-.21.1-.35.07-.24-.06-.39.14-.27.37-.16.77.11.39-.25.55-.36.17-.75.07-.47-.13-.92.07-.86.39-1.24 1.12-.42.79-.83.27-.2-.25-.51-.03-.21.17-.26.43-.16.82-.77.76-.3-.02-.57.12l-7.76 4.12a.72.7 39.1 0 1-.57.05q-1.19-.4-2.14.1-.3.16-.3.49v.55q0 1.1-.66.23Q.13 44.62 0 44V8.53Q1.77 1.49 8.62 0zm17.27 33.5l1.37-3.57a.33.33 0 0 1 .6-.03l1.72 3.41a.33.33 0 0 1-.28.48l-3.08.15a.33.33 0 0 1-.33-.44zm109.33 249.43q-.35 1.82.14 3.76-1.29.54.47 2.22 3.81 3.66 9.15 3.1a.92.92 0 0 0 .54-1.59q-2.98-2.83-6.23-3.96.45-1.08.34-3.21.6.1.85-1 1.46-6.71 2.35-15.83 2.77.26 5.08-.73.45-.2.92-.08.78.2 1.21-.36.31-.39.8-.36.92.05 1.33-.66.28-.49.82-.67 1.92-.63 3.74-1.43.41-.18 1.12.02.4.11.77-.1c1.27-.72 2.43-1.79 3.8-2.28q4.6-1.63 8.87-4.06.43-.25.61-.7.29-.72.97-.77 1-.08.74-.36-.12-.12-.2-.32-.11-.24.09-.42 1.33-1.23 3.05-1.59.56-.12.58-.68.03-.61.8-.5.48.06.78-.31.93-1.16 2.22-.46.51.28.78-.24.35-.67 1.04-.74.42-.04.79-.24l1.01-.55q.24-.13.5-.16.41-.04.66-.41c.81-1.21 2.24-1.88 3.65-1.98q.56-.04.85-.52.34-.56 1.03-.78.54-.18.94-.57 1.18-1.14 2.81-1.47.42-.08.65-.44.83-1.31 2.36-1.76v51.49q-1.57 7.23-8.62 8.77H8.76q-7.21-1.57-8.76-8.62v-46.24q1.24-1.24 1.46-3.2a.36.36 0 0 1 .66-.16q1.67 2.45 2.13 2.22c.98 1.15 2.55 1.23 3.02 2.63a.71.69 79.5 0 0 .67.48q.84-.02 1.24.81.25.52.73.83 2.15 1.38 4.03 3.1c1.2 1.11 2.6 1.59 4.03 2.26a.68.68 0 0 1 .4.62q0 .14 0 .3.01.41.42.47 2.52.35 4.48 1.93.29.24.51.2.25-.05.42-.31.1-.15.27-.07l3.52 1.75q.49.24 1.02.13 1.03-.23 1.85.5a1.04 1.04 0 0 0 .86.25q.71-.11 1.27.26.78.51.8.53.92 1.05 2.38 1.17.42.03.6.19.18.14.29.34.15.3.47.27 2.44-.19 3.93 1.63a.98.98 0 0 0 .85.35q1.12-.11 1.93.78.42.46.79.09.38-.38.86-.14l1.01.51a.7.69-61.7 0 0 .91-.28q1.06-1.82 3.03-1.79l-2.45 11.23a1 .99-80.3 0 0 .85 1.21l1.62.2-1.41 8.24q.91 3.14 4.98 6.73 1.42 1.25 1.75-.61.08-.46-.79-1.68c-1.98-5.39-1.02-7.85.16-12.57l3.93-11.67q1.05-3.12 1.4.16l1.27 11.91q3.08 6.72-1.45 13.04-.82.08-1.08 1.19a.68.68 0 0 0 .92.78q4.72-1.92 6.39-4.75l.14-5.99q.48-.03.93-.39.48-.39.39.23-.05.32 0 .58.1.5.6.5h1.14a.25.25 0 0 0 .25-.25v-.49q0-.46.39-.21.14.09.2.26.04.09.13.11.94.25 1.85.73.37.2.79.17 1.36-.08 2.59.39.21.08.39-.04.14-.1.27-.16.24-.1.49-.1 3.28.02 6.53.41c1.98.24 4.27-.59 6.54.29q.47.18.96.08 2.17-.44 4.33.06.42.1.82-.06c1.4-.59 3.31.42 4.17-.1q.39-.24.84-.18l7.05.83q.43.05.8-.19 1.18-.76 2.45.09.55.37.94-.17l.19-.25q.36-.49.96-.4 1.77.27 3.41-.15a.13.13 0 0 1 .15.19l-.27.51a.06.06 0 0 0 .07.08l.95-.43q.43-.19.88-.1 1.36.25.81 1.05-.15.24.12.26.17.02.32.02.28-.01.17.69-.03.23.2.48-1 1.76-1.62 3.69-.26.84-.1 1.05a1.32 1.25 50.4 0 0 1.88.23l5.92-5.32a1.47 1.25 57.9 0 0 .23-1.6q-.13-.26-.9.16 1.15-1.63.56-3.33 1.33-2.31 1-4.93-1.59-12.64-.94-18.25 1.01-8.76 2.68-17.41.3-1.55 1.49-2.35a.63.62-20.9 0 1 .97.43c1.43 10.84 1.43 21.58 2.17 32.49q.38 5.68.4 11.38c0 .48.26.89.61 1.14z" fill="#ca9c67"/><path d="M127.2 166.21l-1.5-2.55q-.24-.41-.17-.88.09-.53.2-1.04.19-.86-.35-1.24-.43-.31-.87-.02l-.61.39q-.44.29-.75-.15-2.86-4.08-7.92-2.49-1.25-.49-1.83-1.64-.28-.55.31-.75l1.86-.64a1.09 1.08 8.5 0 0 .52-.38c.92-1.2 1.71-2.58 3.08-3.21 3.81-1.74 8.73-.26 9.4 4.38q.53 3.71-1.37 10.22zm-4.77 116.43q1.45 2.43 3.85 1.12.77-.42.9-.16a1.47 1.25 57.9 0 1-.23 1.6l-5.92 5.32a1.32 1.25 50.4 0 1-1.88-.23q-.16-.21.1-1.05.62-1.93 1.62-3.69l1.56-2.91zm12.93 4.05q1.73 1.77 3.93-.23 3.25 1.13 6.23 3.96a.92.92 0 0 1-.54 1.59q-5.34.56-9.15-3.1-1.76-1.68-.47-2.22z" fill="#9e5f4b"/></svg>